<svg width="101" height="59" viewBox="0 0 101 59" fill="none" xmlns="http://www.w3.org/2000/svg">
<path d="M1 5.5C1 3.01472 3.01472 1 5.5 1H17.5C19.9853 1 22 3.01472 22 5.5C22 7.98528 19.9853 10 17.5 10H5.5C3.01472 10 1 7.98528 1 5.5Z" fill="#FFA498" stroke="black" stroke-width="2"/>
<path d="M28 5.5C28 2.46243 30.4624 0 33.5 0H95.5C98.5376 0 101 2.46243 101 5.5C101 8.53757 98.5376 11 95.5 11H33.5C30.4624 11 28 8.53757 28 5.5Z" fill="#B4B4B4"/>
<path d="M0 21.5C0 18.4624 2.46243 16 5.5 16H41.5C44.5376 16 47 18.4624 47 21.5C47 24.5376 44.5376 27 41.5 27H5.5C2.46243 27 0 24.5376 0 21.5Z" fill="#B4B4B4"/>
<path d="M52 21.5C52 19.0147 54.0147 17 56.5 17H68.5C70.9853 17 73 19.0147 73 21.5C73 23.9853 70.9853 26 68.5 26H56.5C54.0147 26 52 23.9853 52 21.5Z" fill="#63CEB9" stroke="black" stroke-width="2"/>
<path d="M78 21.5C78 18.4624 80.4624 16 83.5 16H95.5C98.5376 16 101 18.4624 101 21.5C101 24.5376 98.5376 27 95.5 27H83.5C80.4624 27 78 24.5376 78 21.5Z" fill="#B4B4B4"/>
<path d="M54 37.5C54 34.4624 56.4624 32 59.5 32H95.5C98.5376 32 101 34.4624 101 37.5C101 40.5376 98.5376 43 95.5 43H59.5C56.4624 43 54 40.5376 54 37.5Z" fill="#B4B4B4"/>
<path d="M28 37.5C28 35.0147 30.0147 33 32.5 33H44.5C46.9853 33 49 35.0147 49 37.5C49 39.9853 46.9853 42 44.5 42H32.5C30.0147 42 28 39.9853 28 37.5Z" fill="#6EBDDB" stroke="black" stroke-width="2"/>
<path d="M0 37.5C0 34.4624 2.46243 32 5.5 32H17.5C20.5376 32 23 34.4624 23 37.5C23 40.5376 20.5376 43 17.5 43H5.5C2.46243 43 0 40.5376 0 37.5Z" fill="#B4B4B4"/>
<path d="M0 53.5C0 50.4624 2.46243 48 5.5 48H54.5C57.5376 48 60 50.4624 60 53.5C60 56.5376 57.5376 59 54.5 59H5.5C2.46243 59 0 56.5376 0 53.5Z" fill="#B4B4B4"/>
<path d="M63 53.5C63 51.0147 65.0147 49 67.5 49H79.5C81.9853 49 84 51.0147 84 53.5C84 55.9853 81.9853 58 79.5 58H67.5C65.0147 58 63 55.9853 63 53.5Z" fill="#FFEF98" stroke="black" stroke-width="2"/>
<path d="M87 53.5C87 50.4624 89.4624 48 92.5 48H95.5C98.5376 48 101 50.4624 101 53.5C101 56.5376 98.5376 59 95.5 59H92.5C89.4624 59 87 56.5376 87 53.5Z" fill="#B4B4B4"/>
</svg>
