<svg width="87" height="85" viewBox="0 0 87 85" fill="none" xmlns="http://www.w3.org/2000/svg">
<path d="M1 7C1 3.68629 3.68629 1 7 1H33C36.3137 1 39 3.68629 39 7V78C39 81.3137 36.3137 84 33 84H7C3.68629 84 1 81.3137 1 78V7Z" fill="#98FFEB" stroke="black" stroke-width="2"/>
<path d="M6 14C6 10.6863 8.68629 8 12 8H27C30.3137 8 33 10.6863 33 14V22C33 25.3137 30.3137 28 27 28H12C8.68629 28 6 25.3137 6 22V14Z" fill="#63CEB9" stroke="black" stroke-width="2"/>
<path d="M6 39C6 35.6863 8.68629 33 12 33H27C30.3137 33 33 35.6863 33 39V47C33 50.3137 30.3137 53 27 53H12C8.68629 53 6 50.3137 6 47V39Z" fill="#63CEB9" stroke="black" stroke-width="2"/>
<path d="M6 64C6 60.6863 8.68629 58 12 58H27C30.3137 58 33 60.6863 33 64V72C33 75.3137 30.3137 78 27 78H12C8.68629 78 6 75.3137 6 72V64Z" fill="#63CEB9" stroke="black" stroke-width="2"/>
<path d="M48 7C48 3.68629 50.6863 1 54 1H80C83.3137 1 86 3.68629 86 7V78C86 81.3137 83.3137 84 80 84H54C50.6863 84 48 81.3137 48 78V7Z" fill="#98E3FF" stroke="black" stroke-width="2"/>
<path d="M53 14C53 10.6863 55.6863 8 59 8H74C77.3137 8 80 10.6863 80 14V22C80 25.3137 77.3137 28 74 28H59C55.6863 28 53 25.3137 53 22V14Z" fill="#6EBDDB" stroke="black" stroke-width="2"/>
<path d="M53 39C53 35.6863 55.6863 33 59 33H74C77.3137 33 80 35.6863 80 39V47C80 50.3137 77.3137 53 74 53H59C55.6863 53 53 50.3137 53 47V39Z" fill="#6EBDDB" stroke="black" stroke-width="2"/>
<path d="M53 64C53 60.6863 55.6863 58 59 58H74C77.3137 58 80 60.6863 80 64V72C80 75.3137 77.3137 78 74 78H59C55.6863 78 53 75.3137 53 72V64Z" fill="#6EBDDB" stroke="black" stroke-width="2"/>
</svg>
