<svg width="67" height="79" viewBox="0 0 67 79" fill="none" xmlns="http://www.w3.org/2000/svg">
<path d="M40 7C40 3.68629 42.6863 1 46 1H60C63.3137 1 66 3.68629 66 7V9C66 12.3137 63.3137 15 60 15H46C42.6863 15 40 12.3137 40 9V7Z" fill="#FFEF98" stroke="black" stroke-width="2"/>
<path d="M40 28C40 24.6863 42.6863 22 46 22H60C63.3137 22 66 24.6863 66 28V30C66 33.3137 63.3137 36 60 36H46C42.6863 36 40 33.3137 40 30V28Z" fill="#6EBDDB" stroke="black" stroke-width="2"/>
<path d="M40 49C40 45.6863 42.6863 43 46 43H60C63.3137 43 66 45.6863 66 49V51C66 54.3137 63.3137 57 60 57H46C42.6863 57 40 54.3137 40 51V49Z" fill="#FFA498" stroke="black" stroke-width="2"/>
<path d="M40 70C40 66.6863 42.6863 64 46 64H60C63.3137 64 66 66.6863 66 70V72C66 75.3137 63.3137 78 60 78H46C42.6863 78 40 75.3137 40 72V70Z" fill="#63CEB9" stroke="black" stroke-width="2"/>
<path d="M1 7C1 3.68629 3.68629 1 7 1H21C24.3137 1 27 3.68629 27 7V9C27 12.3137 24.3137 15 21 15H7C3.68629 15 1 12.3137 1 9V7Z" fill="#FFA498" stroke="black" stroke-width="2"/>
<path d="M1 28C1 24.6863 3.68629 22 7 22H21C24.3137 22 27 24.6863 27 28V30C27 33.3137 24.3137 36 21 36H7C3.68629 36 1 33.3137 1 30V28Z" fill="#FFEF98" stroke="black" stroke-width="2"/>
<path d="M1 49C1 45.6863 3.68629 43 7 43H21C24.3137 43 27 45.6863 27 49V51C27 54.3137 24.3137 57 21 57H7C3.68629 57 1 54.3137 1 51V49Z" fill="#6EBDDB" stroke="black" stroke-width="2"/>
<path d="M1 70C1 66.6863 3.68629 64 7 64H21C24.3137 64 27 66.6863 27 70V72C27 75.3137 24.3137 78 21 78H7C3.68629 78 1 75.3137 1 72V70Z" fill="#63CEB9" stroke="black" stroke-width="2"/>
<path d="M27 7.5C35.775 7.5 30.2359 49.5 39 49.5" stroke="black" stroke-width="2"/>
<path d="M26 30.4004C35.9498 30.4004 29.6691 7.5 39.6064 7.5" stroke="black" stroke-width="2"/>
<path d="M26 51.5508C35.9498 51.5508 29.6691 29.6094 39.6064 29.6094" stroke="black" stroke-width="2"/>
<path d="M27 71.4668C36.9498 71.4668 30.6691 71.4492 40.6064 71.4492" stroke="black" stroke-width="2"/>
</svg>
