<svg xmlns="http://www.w3.org/2000/svg" width="23.005" height="23.003" viewBox="0 0 23.005 23.003">
  <g id="ICON" transform="translate(0 0)">
    <path id="Fill_1" data-name="Fill 1" d="M9.219,22.771A.733.733,0,0,1,9.5,21.334a10.064,10.064,0,1,0-3.017-1.115.722.722,0,1,1-.719,1.252,11.5,11.5,0,1,1,3.442,1.3Z" transform="translate(0 0)" fill="#202244"/>
    <path id="Fill_4" data-name="Fill 4" d="M8.625,17.25A8.625,8.625,0,1,1,17.25,8.625,8.635,8.635,0,0,1,8.625,17.25Zm0-15.813a7.187,7.187,0,1,0,7.187,7.187A7.2,7.2,0,0,0,8.625,1.437Z" transform="translate(2.893 2.876)" fill="#202244"/>
    <path id="Fill_6" data-name="Fill 6" d="M3.557,11.484a.719.719,0,1,1,.719-.718A.719.719,0,0,1,3.557,11.484Zm0-2.875a.719.719,0,0,1-.718-.719A2.512,2.512,0,0,1,4.382,5.569,2.157,2.157,0,1,0,1.507,4.132a.716.716,0,0,1-.517.875.714.714,0,0,1-.876-.516A3.593,3.593,0,1,1,4.973,6.914a1.072,1.072,0,0,0-.7.976A.72.72,0,0,1,3.557,8.609Z" transform="translate(7.961 5.767)" fill="#202244"/>
  </g>
</svg>
