<svg xmlns="http://www.w3.org/2000/svg" width="20" height="18" viewBox="0 0 20 18">
  <path id="Fill_1" data-name="Fill 1" d="M14.195,18H5.805A5.84,5.84,0,0,1,0,12.156V5.844A5.831,5.831,0,0,1,5.805,0h8.39a5.774,5.774,0,0,1,4.1,1.718A5.838,5.838,0,0,1,20,5.844V7.309l-.008.093a.711.711,0,0,1-.7.618L19.285,8l-.113-.012a.708.708,0,0,1-.6-.7V5.844a4.461,4.461,0,0,0-4.379-4.41H5.805a4.461,4.461,0,0,0-4.379,4.41v6.313a4.461,4.461,0,0,0,4.379,4.41h8.39a4.461,4.461,0,0,0,4.379-4.41.724.724,0,0,1,.715-.644.716.716,0,0,1,.711.644,5.838,5.838,0,0,1-1.7,4.126A5.774,5.774,0,0,1,14.195,18ZM9.84,10.616A2.843,2.843,0,0,1,8.051,9.98L3.926,6.656l-.074-.075a.724.724,0,0,1-.032-.933.7.7,0,0,1,.551-.265.685.685,0,0,1,.442.16L8.969,8.859a1.424,1.424,0,0,0,1.769,0l4.114-3.316h.007l.09-.059a.708.708,0,0,1,1.063.692.721.721,0,0,1-.265.481L11.633,9.98A2.86,2.86,0,0,1,9.84,10.616Z" transform="translate(0)" fill="#200e32"/>
</svg>
