<svg xmlns="http://www.w3.org/2000/svg" width="19.8" height="18.001" viewBox="0 0 19.8 18.001">
  <path id="Fill_1" data-name="Fill 1" d="M11.7,18H9.9L13.95,7.2h1.8L19.8,18H18l-1.016-2.7H12.709L11.7,18Zm3.15-8.4-1.459,3.9h2.918ZM2.7,15.3h0L1.42,14.02,6,9.5A15.773,15.773,0,0,1,3.322,5.4h1.8A14.127,14.127,0,0,0,7.2,8.417a14.108,14.108,0,0,0,2.855-4.828H0V1.8H6.3V0H8.1V1.8h6.3V3.6H11.763a15.678,15.678,0,0,1-3.34,5.878L8.4,9.5l2.289,2.26L10,13.6,7.2,10.8,2.7,15.3Z" transform="translate(0 0)" fill="#1d1d1b"/>
</svg>
