<svg xmlns="http://www.w3.org/2000/svg" width="17.001" height="20" viewBox="0 0 17.001 20">
  <path id="Fill_1" data-name="Fill 1" d="M8.458,20h0l-.219-.008a3.552,3.552,0,0,1-2.559-1.374l-.067-.09a.764.764,0,0,1,1.246-.876,2,2,0,0,0,3.2,0h.006l.078-.082a.76.76,0,0,1,.51-.2.77.77,0,0,1,.489.177.753.753,0,0,1,.1,1.066A3.537,3.537,0,0,1,8.458,20Zm.016-3.92a41.157,41.157,0,0,1-4.434-.24A4.821,4.821,0,0,1,.97,14.3,4.071,4.071,0,0,1,0,11.563v-.125a4.235,4.235,0,0,1,.73-2.1L.8,9.246a3.821,3.821,0,0,0,.887-1.758V5.676l.046-.1A.777.777,0,0,1,2.4,5.2a.786.786,0,0,1,.081,0,.766.766,0,0,1,.671.633v1.91a5.264,5.264,0,0,1-1.226,2.446,2.569,2.569,0,0,0-.391,1.25v.2a2.581,2.581,0,0,0,.586,1.714,3.3,3.3,0,0,0,2.078.984,39.932,39.932,0,0,0,4.292.232,39.969,39.969,0,0,0,4.294-.232,3.306,3.306,0,0,0,2.12-1.027,2.555,2.555,0,0,0,.56-1.664v-.2a2.612,2.612,0,0,0-.383-1.258A5.282,5.282,0,0,1,13.79,7.734a.43.43,0,0,1,0-.1V5.816c-.258-2.658-2.927-4.3-5.253-4.3a5.8,5.8,0,0,0-2.821.73L5.61,2.3a.772.772,0,0,1-.286.055.783.783,0,0,1-.384-.1A.753.753,0,0,1,4.97.926,7.224,7.224,0,0,1,8.466,0a7.561,7.561,0,0,1,4.456,1.517,6.017,6.017,0,0,1,2.446,4.125V7.453a3.756,3.756,0,0,0,.887,1.758.492.492,0,0,1,.07.1A4.064,4.064,0,0,1,17,11.359l-.027.184a4.108,4.108,0,0,1-.942,2.754,4.868,4.868,0,0,1-3.12,1.543A41.25,41.25,0,0,1,8.474,16.08Z" transform="translate(0 0)" fill="#202244"/>
</svg>
