<svg xmlns="http://www.w3.org/2000/svg" width="16.002" height="20.001" viewBox="0 0 16.002 20.001">
  <path id="Fill_1" data-name="Fill 1" d="M7.867,20H7.6a.767.767,0,0,1,0-1.524h.6c.62-.008,1.227-.037,1.8-.086a14.476,14.476,0,0,0,2.118-.3c1.219-.267,1.954-.652,2.183-1.144a1.391,1.391,0,0,0,0-1.21c-.234-.509-.981-.906-2.161-1.146a13.448,13.448,0,0,0-2.147-.309c-.673-.062-1.356-.094-2.032-.094s-1.359.032-2.031.094a14.484,14.484,0,0,0-2.125.3c-1.212.269-1.947.654-2.184,1.145a1.422,1.422,0,0,0-.132.609,1.452,1.452,0,0,0,.132.614,2.543,2.543,0,0,0,1.746,1.031l.1.027a.754.754,0,0,1,.48.508.773.773,0,0,1-.2.766.751.751,0,0,1-.766.176,3.862,3.862,0,0,1-2.7-1.847,2.961,2.961,0,0,1,0-2.524C.739,14.1,1.792,13.453,3.5,13.1a16.43,16.43,0,0,1,2.383-.336c.715-.06,1.442-.091,2.16-.091s1.445.031,2.16.091a15.126,15.126,0,0,1,2.332.344c1.671.338,2.747,1,3.2,1.964a2.987,2.987,0,0,1-.027,2.524c-.459.966-1.548,1.629-3.235,1.973a15.123,15.123,0,0,1-2.324.332A19.257,19.257,0,0,1,7.867,20ZM8,10.719H7.992A5.354,5.354,0,0,1,2.677,5.359l.007-.23A5.375,5.375,0,0,1,5.965.406a5.292,5.292,0,0,1,5.8,1.168,5.352,5.352,0,0,1,1.149,5.84A5.3,5.3,0,0,1,8,10.719ZM7.979,1.531A3.758,3.758,0,0,0,5.3,2.649,3.867,3.867,0,0,0,4.18,5.359,3.824,3.824,0,0,0,6.528,8.91a3.793,3.793,0,0,0,4.155-.828A3.84,3.84,0,0,0,7.992,1.531Z" transform="translate(0.002 0)" fill="#202244"/>
</svg>
