<svg xmlns="http://www.w3.org/2000/svg" width="20.382" height="20.4" viewBox="0 0 20.382 20.4">
  <path id="Fill_1" data-name="Fill 1" d="M10.008,20H9.976A.615.615,0,0,1,9.9,20C3.118,18.714-.21,13,.01,3.02a1.136,1.136,0,0,1,1.129-1.1h.01a1.145,1.145,0,0,1,.662.215,3.9,3.9,0,0,0,2.119.625h.081c1.092,0,2.518-.408,2.944-1.56A1.77,1.77,0,0,1,8.593,0h2.8a1.763,1.763,0,0,1,1.632,1.2c.422,1.144,1.85,1.555,2.945,1.56h.089a3.867,3.867,0,0,0,2.11-.626,1.135,1.135,0,0,1,.663-.215h.01a1.134,1.134,0,0,1,1.128,1.1,28.649,28.649,0,0,1-.822,8.06,4.441,4.441,0,0,1,.823,2.59,4.51,4.51,0,0,1-4.491,4.5,4.3,4.3,0,0,1-.809-.076A11.389,11.389,0,0,1,10.086,20,.687.687,0,0,1,10.008,20ZM1.145,2.915a.128.128,0,0,0-.055.012.138.138,0,0,0-.083.119C.8,12.418,3.824,17.784,9.99,19a10.434,10.434,0,0,0,3.469-1.31,4.508,4.508,0,0,1-2-2.01,4.259,4.259,0,0,1-.345-.921,4.551,4.551,0,0,1-.13-1.085,4.5,4.5,0,0,1,3.743-4.44,17.761,17.761,0,0,0,.309-1.776A7.981,7.981,0,0,1,9.99,5.106,8.058,8.058,0,0,1,4.405,7.5h-.02a.5.5,0,0,1-.02-1A7,7,0,0,0,9.6,4.036a.51.51,0,0,1,.778,0A7,7,0,0,0,15.614,6.5a.485.485,0,0,1,.354.175.471.471,0,0,1,.121.375,18.837,18.837,0,0,1-.329,2.135A4.45,4.45,0,0,1,18.334,10.2a28.591,28.591,0,0,0,.639-7.155.137.137,0,0,0-.136-.131.138.138,0,0,0-.088.03,4.818,4.818,0,0,1-2.68.811h-.18a4.959,4.959,0,0,1-2.371-.6A3.123,3.123,0,0,1,12.086,1.54.774.774,0,0,0,11.393,1h-2.8a.775.775,0,0,0-.7.54A3.939,3.939,0,0,1,4.011,3.755h-.1a4.81,4.81,0,0,1-2.678-.811A.143.143,0,0,0,1.145,2.915ZM15.479,17.17H15.5a2.4,2.4,0,0,0,.3-.02,3.478,3.478,0,0,0,3.173-3.48,3.4,3.4,0,0,0-.24-1.26,3.321,3.321,0,0,0-.693-1.115,3.5,3.5,0,0,0-2.515-1.125h-.046a3.416,3.416,0,0,0-1.037.16h-.006a3.493,3.493,0,0,0-2.45,3.34,2.978,2.978,0,0,0,.045.52,3.091,3.091,0,0,0,.3.98A3.458,3.458,0,0,0,14.426,17a3.319,3.319,0,0,0,1.036.166Zm-5.489-1a.488.488,0,0,1-.119-.015c-2.912-.708-4.745-2.913-5.6-6.74a.5.5,0,0,1,.487-.606.5.5,0,0,1,.486.392c.752,3.352,2.35,5.356,4.749,5.954a5.607,5.607,0,0,0,1.129-.4,4.208,4.208,0,0,0,.345.921,6.7,6.7,0,0,1-1.353.48A.5.5,0,0,1,9.99,16.17Zm4.926-.551a.508.508,0,0,1-.353-.147l-1.432-1.436a.5.5,0,0,1,.706-.707l1.079,1.082L17.123,12.2a.5.5,0,1,1,.7.706l-2.559,2.567A.5.5,0,0,1,14.916,15.619Z" transform="translate(0.2 0.2)" fill="#202244" stroke="#202244" stroke-miterlimit="10" stroke-width="0.4"/>
</svg>
