<svg xmlns="http://www.w3.org/2000/svg" width="16" height="18" viewBox="0 0 16 18">
  <path id="Fill_1" data-name="Fill 1" d="M8,18a3.365,3.365,0,0,1-1.8-.519c-2.021-1.268-5.486-3.864-5.979-7L0,4.27A1.9,1.9,0,0,1,1.383,2.422,30.439,30.439,0,0,0,6.963.278a2.07,2.07,0,0,1,2.073,0,30.475,30.475,0,0,0,5.581,2.144A1.9,1.9,0,0,1,16,4.27l-.212,6.142c-.5,3.2-3.961,5.8-5.983,7.069A3.365,3.365,0,0,1,8,18ZM8,1.242a.675.675,0,0,0-.351.1A31.3,31.3,0,0,1,1.78,3.613a.626.626,0,0,0-.459.615l.212,6.146c.4,2.572,3.549,4.906,5.389,6.069a2.02,2.02,0,0,0,2.155,0c1.841-1.163,4.99-3.508,5.4-6.142l.206-6.072a.623.623,0,0,0-.455-.615A31.313,31.313,0,0,1,8.351,1.34.675.675,0,0,0,8,1.242Zm0,9.912a.644.644,0,0,1-.661-.624v-1.7a1.058,1.058,0,0,1-.5-.884,1.167,1.167,0,0,1,2.331,0,1.061,1.061,0,0,1-.506.884v1.7A.643.643,0,0,1,8,11.154Z" transform="translate(0 0)" fill="#202244"/>
</svg>
