<svg xmlns="http://www.w3.org/2000/svg" width="20" height="19" viewBox="0 0 20 19">
  <path id="Fill_1" data-name="Fill 1" d="M14.215,19a.681.681,0,0,1,0-1.363,4.51,4.51,0,0,0,4.453-4.555V7.363H15.383a2,2,0,0,0,0,4.008h1.363a.684.684,0,0,1,0,1.367H15.383a3.37,3.37,0,0,1,0-6.737h3.285V5.918a4.51,4.51,0,0,0-4.453-4.556H5.785A4.448,4.448,0,0,0,1.566,4.527h8.789a.682.682,0,0,1,0,1.364H1.336l0,.027v7.164a4.51,4.51,0,0,0,4.453,4.555h4.242a.682.682,0,0,1,0,1.363H5.785A5.859,5.859,0,0,1,0,13.082V5.918A5.86,5.86,0,0,1,5.785,0h8.429A5.86,5.86,0,0,1,20,5.918v7.164A5.859,5.859,0,0,1,14.215,19Zm1.617-9.012h-.305a.682.682,0,0,1,0-1.363h.305a.682.682,0,0,1,0,1.363Z" transform="translate(0 0)" fill="#202244"/>
</svg>
