<svg xmlns="http://www.w3.org/2000/svg" width="19.836" height="17.014" viewBox="0 0 19.836 17.014">
  <g id="Frame" transform="translate(0.007 0.004)">
    <rect id="Frame-2" data-name="Frame" width="19.828" height="17.01" fill="none"/>
    <path id="Vector" d="M19.836,8.5a1.42,1.42,0,0,1-1.416,1.416H4.837l4.674,4.66a1.463,1.463,0,0,1,.411,1.006,1.5,1.5,0,0,1-.411,1.02,1.463,1.463,0,0,1-1.006.411,1.5,1.5,0,0,1-1.02-.411L.4,9.521a1.462,1.462,0,0,1-.3-.467,1.417,1.417,0,0,1,0-1.076A1.344,1.344,0,0,1,.418,7.5L7.5.414A1.422,1.422,0,0,1,9.511,2.425L4.837,7.085H18.419A1.42,1.42,0,0,1,19.836,8.5Z" transform="translate(-0.007 -0.004)"/>
  </g>
</svg>
